<svg xmlns="http://www.w3.org/2000/svg" viewBox="0 0 64 64" role="img" aria-labelledby="title">
  <title>Hydra</title>
  <rect width="64" height="64" rx="16" fill="#141312"/>
  <path
    d="M18 44c4-8 5-16 1-24 5 2 8 6 9 11 2-7 6-12 12-15-2 6-1 11 4 16 2-5 6-8 12-9-4 4-5 9-3 15 1 4 0 8-3 11-4 4-10 3-13-1-3 4-9 5-14 2-2-1-4-3-5-6Z"
    fill="#2fbf71"
  />
  <path
    d="M24 43c3-4 4-9 2-15 4 3 6 7 6 12 1-7 4-12 9-16-1 6 0 10 4 14 1-3 3-6 6-8-1 4 0 8 1 11 1 4-2 8-6 8-3 0-5-2-6-5-1 4-4 7-8 7-4 0-7-3-8-8Z"
    fill="#f4efe8"
    opacity=".9"
  />
  <circle cx="25" cy="28" r="2" fill="#141312"/>
  <circle cx="42" cy="24" r="2" fill="#141312"/>
  <circle cx="51" cy="31" r="1.8" fill="#141312"/>
</svg>
