<?xml version="1.0" encoding="UTF-8" standalone="no"?>
<svg
   width="1804.0603"
   height="206.12706"
   viewBox="0 0 1804.0603 206.12706"
   version="1.1"
   id="svg1"
   xmlns="http://www.w3.org/2000/svg"
   xmlns:svg="http://www.w3.org/2000/svg"
   xmlns:rdf="http://www.w3.org/1999/02/22-rdf-syntax-ns#"
   xmlns:cc="http://creativecommons.org/ns#"
   xmlns:dc="http://purl.org/dc/elements/1.1/">
  <!-- Generator: Sketch 44.1 (41455) - http://www.bohemiancoding.com/sketch -->
  <title
     id="title1">Logos_Without3DS/ SOLIDWORKS</title>
  <desc
     id="desc1">Created with Sketch.</desc>
  <defs
     id="defs1" />
  <g
     id="Page-1"
     stroke="none"
     stroke-width="1"
     fill="none"
     fill-rule="evenodd"
     transform="matrix(3,0,0,3,0.408,1.4198569)">
    <g
       id="Logos_Without3DS/-SOLIDWORKS"
       fill="#da322a">
      <path
         d="m 97.287,-0.473 c 23.464,0 30.954,15.609 27.894,34.229 -3.071,18.64 -15.693,34.217 -39.129,34.217 -23.476,0 -30.937,-15.577 -27.913,-34.217 3.078,-18.62 15.679,-34.229 39.148,-34.229 z m 13.382,34.229 c 2.5,-15.235 -1.918,-22.972 -15.225,-22.972 -13.332,0 -20.304,7.737 -22.791,22.972 -2.515,15.242 1.923,22.97 15.222,22.97 13.314,0 20.313,-7.728 22.794,-22.97 z M 4.114,13.842 C 5.309,6.214 11.842,-0.473 19.326,-0.473 H 52.998 V 6.52 c -0.478,3.162 -2.245,6.333 -5.374,6.333 h -25.48 c -2.534,0 -3.987,0.664 -4.191,2.283 -0.132,0.955 0.311,1.629 2.108,2.918 l 22.296,15.841 c 4.777,3.384 7.244,8.667 6.069,16.046 -1.246,7.854 -7.435,15.231 -19.965,15.231 H -0.136 v -9.095 c 0.485,-2.966 1.918,-4.206 4.51,-4.206 h 24.405 c 4.345,0 5.63,-1.015 6.016,-3.461 0.261,-1.772 -0.802,-2.807 -3.031,-4.326 L 10.77,29.438 C 4.905,25.331 3.288,19.082 4.114,13.842 Z m 170.069,40.65 c 2.534,0 3.503,1.187 2.979,4.093 l -1.188,6.587 h -46.202 l 11.981,-65.645 h 12.272 c 1.319,0 2.102,1.188 1.889,2.259 l -9.61,52.706 z M 548.91,-0.068 c 0.595,0 1.238,0.08 1.79,0.514 0.537,0.399 0.821,1.154 0.809,1.774 0,1.57 -0.944,2.379 -0.944,2.379 l -33.798,28.673 25.31,27.507 c 0,0 0.972,1.182 0.972,2.376 0,0.644 -0.284,1.386 -0.855,1.813 -0.53,0.383 -1.134,0.468 -1.785,0.497 h -3.197 l -26.738,-29.066 -5.361,29.037 h -7.202 L 510.117,-0.19 h 3.236 c 0.73,0 1.48,0.235 2.076,0.71 0.571,0.391 1.245,1.37 0.954,2.791 l -4.469,25.516 33.763,-28.895 z M 258.065,-0.473 c 20.837,0 28.636,13.121 25.188,31.749 -4.384,24.29 -18.633,33.876 -39.079,33.876 H 216.5 l 8.292,-45.343 c 0.154,-1.058 1.307,-2.232 2.931,-2.232 h 12.075 l -6.761,36.915 h 14.196 c 10.542,0 17.512,-9.858 19.861,-22.732 2.551,-14.07 -1.415,-21.579 -11.775,-21.579 h -26.148 c -7.059,0 -7.421,-5.137 -6.607,-9.604 l 0.18,-1.05 z m 207.62,0.283 c 9.962,0 18.727,0.152 23.826,5.986 2.906,3.344 3.119,9.512 2.309,13.286 -1.015,4.67 -5.419,16.352 -21.977,17.842 l 13.943,23.855 c 0,0 0.932,1.447 0.932,2.376 0.025,0.644 -0.261,1.386 -0.831,1.813 -0.543,0.383 -1.134,0.497 -1.791,0.497 h -3.648 l -16.353,-28.154 -13.159,-0.076 -5.109,28.23 H 436.61 L 448.804,-0.19 Z m 7.482,29.827 c 10.282,-2.773 15.358,-14.461 9.7,-19.848 C 481.559,8.49 479.535,7.886 476.438,7.297 475.621,7.136 474.276,7.03 472.77,6.951 468.989,6.752 457.824,6.917 454.402,6.931 l -4.306,23.894 c 2.568,0.032 5.506,0.051 7.582,0.083 5.844,0 11.477,-0.198 15.489,-1.271 z M 574.11,-0.19 h 27.107 v 4.974 c 0.022,0.808 -0.822,1.836 -1.598,1.968 l 0.04,0.179 -0.052,-0.179 c -0.2,0.059 -24.318,0.093 -24.345,0.093 -4.949,0 -7.986,3.223 -8.012,7.256 0.026,2.385 1.377,4.597 3.548,6.74 l 17.492,17.217 c 0.027,0 6.277,5.253 6.277,12.056 v 0.026 c -0.055,4.896 -1.402,15.278 -14.051,15.325 H 553.71 v -4.923 l -0.079,-0.041 h 0.079 c -0.013,-0.816 0.783,-1.843 1.584,-1.99 0.221,-0.079 24.081,-0.079 24.102,-0.1 4.935,0.021 7.991,-3.249 7.991,-7.257 0,-2.38 -1.079,-4.894 -3.269,-7.034 L 565.669,26.041 c -1.864,-1.631 -5.61,-5.744 -5.61,-10.905 0.066,-4.908 1.392,-15.286 14.051,-15.326 z M 208.963,-0.473 c 1.314,0 2.092,1.188 1.893,2.239 L 199.268,65.152 H 184.68 l 12.001,-65.625 z m 200.595,0.157 c 19.716,2.292 25.587,19.87 21.609,36.689 -4.426,18.656 -17.879,33.383 -39.339,31.737 -19.981,-2.322 -25.678,-19.927 -21.452,-36.722 4.625,-18.647 18.037,-33.373 39.182,-31.737 z m 14.569,36.122 c 4.452,-18.753 -4.271,-28.198 -16.23,-29.419 -12.048,-0.657 -25.814,6.447 -30.556,25.572 -4.637,18.752 4.075,27.859 15.88,29.371 l 1.2,0.061 c 12.188,0.657 25.16,-6.454 29.706,-25.585 z M 370.376,2.403 c 0,0.631 -0.146,0.93 -0.339,1.387 l -25.313,56.95 c -1.3,2.972 -3.8,4.696 -6.793,4.696 h -4.741 l -7.306,-35.799 -17.63,31.402 c -0.823,1.3 -1.737,2.375 -2.819,3.163 -1.189,0.864 -2.64,1.263 -4.246,1.234 H 295.61 V -0.19 h 4.293 c 0.682,0 1.386,0.122 2.009,0.636 0.651,0.505 0.927,1.42 0.927,2.151 l -0.203,54.634 20.107,-35.038 h 4.275 c 2.601,-0.145 4.772,1.712 5.151,4.425 l 6.647,30.927 25.471,-57.735 h 3.317 c 0.648,0 1.3,0.119 1.89,0.586 0.61,0.469 0.909,1.357 0.882,2.007 z"
         id="Combined-Shape" />
    </g>
  </g>
  <metadata
     id="metadata1">
    <rdf:RDF>
      <cc:Work
         rdf:about="">
        <dc:title>Logos_Without3DS/ SOLIDWORKS</dc:title>
      </cc:Work>
    </rdf:RDF>
  </metadata>
</svg>
