<svg xmlns="http://www.w3.org/2000/svg" width="16" height="16" viewBox="0 0 24 24" aria-hidden="true">
  <path fill="#0A66C2" d="M20.447 20.452H16.89v-5.569c0-1.328-.027-3.037-1.852-3.037-1.853 0-2.136 1.447-2.136 2.943v5.663H9.345V9h3.41v1.561h.048c.476-.9 1.637-1.852 3.37-1.852 3.604 0 4.269 2.373 4.269 5.459v6.284zM5.337 7.433a1.983 1.983 0 1 1 0-3.966 1.983 1.983 0 0 1 0 3.966zM6.995 20.452H3.677V9h3.318v11.452zM22.225 0H1.771C.792 0 0 .774 0 1.729v20.542C0 23.226.792 24 1.771 24h20.451C23.2 24 24 23.226 24 22.271V1.729C24 .774 23.2 0 22.222 0h.003z"/>
</svg>

